<svg width="136" height="57" viewBox="0 0 136 57" fill="currentColor" xmlns="http://www.w3.org/2000/svg" >
<path d="M133.04 17.8828H118.449C116.875 17.8828 115.73 19.1701 115.73 20.7436V53.3598C115.73 54.9334 117.018 56.2206 118.449 56.2206H133.04C134.614 56.2206 135.901 54.9334 135.901 53.3598V20.7436C135.901 19.171 134.614 17.8828 133.04 17.8828ZM122.168 20.1719H129.463C129.75 20.1719 129.892 20.4583 129.892 20.601C129.892 20.7437 129.606 21.0301 129.463 21.0301H122.168C121.881 21.0301 121.739 20.7437 121.739 20.601C121.739 20.4583 121.882 20.1719 122.168 20.1719ZM125.744 53.6464C124.886 53.6464 124.313 53.0746 124.313 52.2155C124.313 51.3573 124.885 50.7845 125.744 50.7845C126.602 50.7845 127.175 51.3563 127.175 52.2155C127.175 53.0746 126.603 53.6464 125.744 53.6464ZM134.614 48.3537H117.162V23.3193H134.614V48.3537Z" />
<path d="M107.433 9.87109H77.8209C76.8191 9.87109 75.9609 10.7293 75.9609 11.7311V54.218C75.9609 55.2198 76.8191 56.078 77.8209 56.078H107.433C108.435 56.078 109.293 55.2198 109.293 54.218V11.7311C109.293 10.7292 108.435 9.87109 107.433 9.87109ZM88.9796 12.5894H96.2751C96.5615 12.5894 96.7042 12.8758 96.7042 13.0184C96.7042 13.1611 96.4178 13.4475 96.2751 13.4475H88.9796C88.6932 13.4475 88.5505 13.1611 88.5505 13.0184C88.5505 12.8758 88.6932 12.5894 88.9796 12.5894ZM92.556 53.6457C91.6978 53.6457 91.125 53.0739 91.125 52.2148C91.125 51.3566 91.6968 50.7838 92.556 50.7838C93.4141 50.7838 93.9869 51.3556 93.9869 52.2148C93.9869 53.0739 93.4141 53.6457 92.556 53.6457ZM108.006 48.353H77.2492V16.166H108.006V48.353Z" />
<path d="M67.5215 0H1.86C0.858141 0 0 0.858165 0 1.86V47.6371C0 48.639 0.858167 49.4971 1.86 49.4971H67.5215C68.5234 49.4971 69.3815 48.6389 69.3815 47.6371V1.86C69.3815 0.859135 68.5224 0 67.5215 0ZM31.0429 2.57547H38.3384C38.6248 2.57547 38.7675 2.86186 38.7675 3.00455C38.7675 3.14725 38.4811 3.43364 38.3384 3.43364H31.0429C30.7565 3.43364 30.6138 3.14725 30.6138 3.00455C30.6138 2.86186 30.7565 2.57547 31.0429 2.57547ZM34.762 46.922C33.9039 46.922 33.3311 46.3503 33.3311 45.4911C33.3311 44.6329 33.9029 44.0602 34.762 44.0602C35.6202 44.0602 36.193 44.6319 36.193 45.4911C36.193 46.3493 35.4775 46.922 34.762 46.922ZM68.0935 41.4858H1.28753V6.29461H68.0935V41.4858Z" />
<path  d="M43.632 55.0743H41.2002L39.9129 50.4961H29.6131L28.3258 55.0743H25.894C25.6077 55.0743 25.3223 55.3607 25.3223 55.6461C25.3223 55.9325 25.6087 56.2179 25.894 56.2179H43.6329C43.9193 56.2179 44.2047 55.9315 44.2047 55.6461C44.2037 55.3607 43.9183 55.0743 43.6319 55.0743H43.632Z" />
</svg>
