<svg width="184" height="50" viewBox="0 0 184 50" fill="none" xmlns="http://www.w3.org/2000/svg">
<path d="M174.159 23.801L184 50C181.099 49.5829 178.2 49.0611 175.246 48.5925L169.703 34.1144L164.005 47.3959C161.208 46.9272 158.461 46.7695 155.665 46.4055L165.663 23.4886L156.597 0H164.99L170.066 13.1237L175.506 0H184L174.159 23.801ZM149.967 0H142.352V45.4166C144.838 45.5728 147.428 45.6759 149.967 45.9884V0ZM135.772 44.8949C128.832 44.4262 121.89 44.0107 114.794 43.8529V0H122.563V36.4576C127.019 36.5623 131.473 36.9263 135.772 37.1341V44.8949ZM106.505 17.7602V25.5725H95.8866V43.3327H88.219V0H109.976V7.81235H95.8866V17.7602H106.505ZM75.1646 7.81235V43.7498C72.5745 43.7498 69.9332 43.7498 67.3944 43.8529V7.81235H59.3648V0H83.2455V7.81235H75.1646ZM50.9731 25.9881C47.5549 25.9881 43.5136 25.9881 40.6128 26.1458V37.7605C45.1715 37.4465 49.7301 37.0825 54.34 36.9263V44.4262L32.8427 46.1462V0H54.34V7.81235H40.6128V18.3319C43.6177 18.3319 48.2277 18.1757 50.9731 18.1757V25.9881ZM7.92556 21.614V48.9049C5.12885 49.2189 2.64133 49.5829 0 50V0H7.40817L17.5089 28.386V0H25.2791V46.7695C22.5337 47.2397 19.737 47.3959 16.7833 47.8114L7.92556 21.614Z" fill="#EE1520"/>
</svg>
